<?xml version="1.0" standalone="no"?>
<!DOCTYPE svg PUBLIC "-//W3C//DTD SVG 20010904//EN"
 "http://www.w3.org/TR/2001/REC-SVG-20010904/DTD/svg10.dtd">
<svg version="1.0" xmlns="http://www.w3.org/2000/svg"
 width="512.000000pt" height="512.000000pt" viewBox="0 0 512.000000 512.000000"
 preserveAspectRatio="xMidYMid meet">

<g transform="translate(0.000000,512.000000) scale(0.100000,-0.100000)"
fill="#000000" stroke="none">
<path d="M3612 5094 c-14 -9 -22 -26 -22 -43 0 -38 29 -48 150 -55 105 -6 226
-26 275 -46 11 -4 45 -13 75 -20 52 -12 71 -19 185 -70 25 -11 47 -20 50 -20
3 0 47 -28 98 -62 189 -126 357 -333 406 -498 7 -25 17 -54 22 -65 8 -20 13
-56 25 -170 4 -37 13 -64 23 -72 26 -20 85 -16 106 7 16 18 17 28 7 117 -15
131 -22 172 -33 179 -5 3 -9 14 -9 26 0 22 -79 191 -92 196 -4 2 -8 8 -8 13 0
16 -103 140 -172 205 -59 57 -181 154 -194 154 -3 0 -24 13 -47 28 -45 30 -66
40 -197 95 -103 43 -130 51 -245 76 -196 43 -363 53 -403 25z"/>
<path d="M3612 4774 c-26 -18 -30 -65 -7 -84 8 -7 65 -16 128 -21 61 -5 128
-13 147 -18 118 -30 259 -95 314 -143 11 -10 24 -18 29 -18 10 0 89 -80 132
-134 64 -80 111 -196 118 -288 5 -77 27 -108 75 -108 58 1 72 17 72 87 0 33
-4 73 -9 89 -5 16 -15 49 -22 74 -22 75 -79 176 -136 240 -48 55 -59 66 -93
91 -19 15 -48 39 -65 53 -16 14 -33 26 -36 26 -3 0 -38 18 -78 39 -71 39 -181
79 -276 100 -27 6 -71 15 -97 21 -71 15 -170 13 -196 -6z"/>
<path d="M860 4640 c-19 -19 -20 -33 -20 -519 l0 -500 -29 -20 c-16 -12 -32
-21 -36 -21 -3 0 -25 -13 -48 -28 -23 -15 -55 -34 -72 -42 -16 -8 -36 -21 -44
-28 -7 -7 -30 -21 -50 -32 -21 -10 -91 -51 -157 -91 -65 -39 -143 -84 -172
-100 -30 -16 -66 -37 -80 -47 -15 -10 -34 -21 -42 -24 -8 -3 -34 -20 -58 -37
-47 -35 -54 -62 -20 -85 19 -14 67 -16 319 -16 247 0 299 -2 309 -15 10 -12 5
-17 -27 -30 -44 -19 -98 -67 -120 -108 -19 -37 -18 -124 1 -162 19 -37 60 -77
106 -102 l35 -20 3 -325 c2 -315 3 -326 23 -344 20 -18 47 -19 453 -24 l431
-5 5 -249 5 -248 -40 -20 c-51 -26 -103 -81 -111 -115 -3 -16 -7 -34 -10 -41
-11 -37 10 -104 47 -146 36 -40 128 -96 160 -96 11 0 11 -2 -1 -10 -9 -6 -279
-10 -712 -10 -521 0 -709 -3 -744 -12 -55 -15 -121 -69 -140 -115 -11 -25 -14
-103 -14 -350 0 -361 4 -379 77 -427 89 -59 -43 -56 2479 -56 2306 0 2312 0
2379 21 80 24 137 72 153 127 16 52 16 611 1 667 -16 57 -72 109 -141 129 -50
14 -145 16 -860 16 -441 0 -809 4 -817 9 -10 7 -8 10 10 16 41 11 106 46 143
77 36 29 54 61 76 130 22 73 -29 169 -127 237 -36 24 -40 42 -21 103 12 42 58
94 98 110 38 16 201 65 325 99 109 29 261 84 279 101 6 4 17 8 26 8 9 0 25 8
36 18 10 10 40 32 65 49 86 59 165 171 197 278 6 22 16 72 22 111 9 57 16 74
37 90 97 71 118 108 117 202 -1 92 -34 142 -133 200 -43 25 -54 27 -161 27
-123 0 -163 -10 -211 -52 -14 -13 -33 -29 -42 -36 -32 -25 -57 -86 -57 -141 0
-83 41 -146 143 -219 18 -12 18 -17 4 -83 -8 -39 -22 -87 -32 -107 -21 -46
-104 -124 -153 -144 -20 -8 -50 -21 -67 -28 -42 -19 -155 -55 -173 -55 -9 0
-29 -4 -46 -9 -17 -6 -77 -24 -133 -41 -56 -17 -112 -30 -125 -28 l-23 3 -3
327 -2 326 50 37 c28 21 61 51 74 69 66 90 53 189 -37 273 -47 44 -69 57 -130
77 -10 3 -17 12 -14 19 3 9 194 13 894 17 945 5 923 4 923 51 0 17 -65 74
-100 87 -8 3 -26 13 -40 23 -14 9 -53 32 -85 50 -33 18 -79 45 -102 61 -23 15
-44 28 -48 28 -3 0 -34 17 -68 38 -34 22 -84 52 -112 67 -27 16 -52 31 -55 34
-3 3 -18 13 -35 21 -16 8 -55 30 -85 50 -30 20 -68 42 -85 50 -16 8 -49 27
-72 42 -23 15 -44 28 -47 28 -3 0 -29 15 -58 33 -29 19 -73 45 -98 59 -25 14
-103 60 -173 102 -70 42 -130 76 -133 76 -3 0 -31 17 -62 38 -31 21 -78 48
-104 61 -27 13 -48 28 -48 33 0 4 -5 8 -10 8 -6 0 -41 19 -78 41 -37 23 -87
53 -112 67 -59 32 -155 89 -204 120 -22 14 -65 38 -95 55 -31 17 -75 43 -98
59 -23 15 -44 28 -46 28 -3 0 -35 18 -71 40 -36 22 -68 40 -70 40 -3 0 -33 18
-67 40 -34 22 -74 40 -89 40 -14 0 -48 -14 -76 -31 -27 -18 -64 -40 -81 -50
-143 -82 -161 -92 -235 -138 -37 -22 -70 -41 -73 -41 -3 0 -29 -15 -58 -33
-134 -86 -281 -167 -301 -167 -14 0 -16 29 -16 230 0 217 -1 231 -20 250 -19
19 -33 20 -420 20 -387 0 -401 -1 -420 -20z m137 -167 c-2 -16 -4 -5 -4 22 0
28 2 40 4 28 2 -13 2 -35 0 -50z m570 0 c-2 -16 -4 -5 -4 22 0 28 2 40 4 28 2
-13 2 -35 0 -50z m1 -165 c8 -8 12 -51 12 -127 0 -92 -3 -118 -17 -133 -9 -10
-20 -18 -25 -18 -5 0 -36 -18 -68 -40 -32 -22 -61 -40 -64 -40 -3 0 -92 -52
-198 -115 -106 -64 -199 -114 -208 -113 -13 3 -15 42 -18 287 -2 201 1 288 9
297 16 19 558 21 577 2z m1203 -325 c9 -3 22 -16 30 -29 28 -54 -46 -112 -107
-83 -24 12 -30 21 -32 57 -3 40 -1 43 30 57 18 8 40 12 48 9 8 -4 22 -8 31
-11z m-753 -213 c26 -16 32 -26 32 -54 0 -42 -21 -61 -70 -61 -88 0 -109 92
-29 124 32 13 30 13 67 -9z m799 -447 c-1 -82 -3 -15 -3 147 0 162 2 229 3
148 2 -82 2 -214 0 -295z m-1239 -291 c2 -7 -11 -19 -30 -26 -40 -17 -99 -71
-115 -106 -17 -36 -23 -83 -16 -124 7 -44 74 -123 120 -143 l33 -13 -2 -268
-3 -267 -350 0 -350 0 -3 263 -2 263 32 17 c37 20 97 77 116 109 17 31 15 124
-3 161 -19 38 -78 90 -122 108 -32 14 -40 24 -26 37 4 4 166 6 361 5 276 -2
356 -6 360 -16z m919 2 c2 -7 -17 -22 -42 -34 -57 -27 -106 -85 -123 -143 -11
-38 -11 -51 1 -87 19 -57 59 -106 106 -130 21 -10 40 -25 42 -32 2 -7 3 -129
1 -271 l-3 -257 -347 2 -347 3 -3 266 -2 266 27 12 c40 17 88 61 112 104 52
93 5 209 -108 266 -40 21 -48 31 -34 44 12 13 716 3 720 -9z m621 -1 c2 -7 -5
-16 -15 -19 -139 -44 -236 -177 -200 -274 25 -68 48 -100 102 -141 l55 -41 0
-544 0 -543 -32 -22 c-99 -68 -149 -164 -126 -242 6 -23 18 -53 27 -67 31 -53
118 -115 190 -135 69 -20 -62 -25 -689 -24 -641 0 -772 5 -695 23 77 18 150
69 184 129 51 91 3 216 -100 262 l-39 18 2 251 3 251 435 5 c239 3 436 7 438
8 1 1 11 17 22 35 19 30 20 51 20 345 l0 312 24 10 c61 23 136 124 136 182 -1
71 -62 156 -137 190 -42 19 -50 28 -36 42 4 3 101 5 217 4 156 -2 210 -6 214
-15z m-2271 -89 c48 -23 83 -78 83 -132 0 -37 -6 -48 -44 -86 -34 -35 -54 -46
-89 -51 -75 -12 -135 9 -184 65 -17 18 -22 38 -23 74 0 57 29 103 82 129 43
21 130 22 175 1z m907 2 c47 -20 96 -83 96 -124 0 -42 -14 -69 -58 -109 -33
-32 -38 -33 -116 -33 -79 0 -84 1 -123 35 -82 70 -61 185 42 231 39 17 117 17
159 0z m910 4 c38 -14 82 -60 96 -102 12 -34 12 -41 -9 -80 -33 -65 -81 -92
-163 -93 -59 0 -70 3 -104 31 -41 33 -72 78 -73 106 -2 39 60 119 108 140 24
10 116 9 145 -2z m609 -44 c49 -18 75 -42 93 -85 29 -68 -17 -137 -110 -166
-46 -15 -62 -16 -77 -7 -10 7 -26 12 -34 12 -62 0 -119 85 -102 151 21 85 130
130 230 95z m1074 -177 c60 -32 83 -66 83 -121 0 -27 -4 -48 -10 -48 -5 0 -10
-7 -10 -15 0 -26 -95 -75 -145 -75 -57 0 -155 58 -155 92 0 9 -4 20 -10 23
-26 16 5 94 48 122 57 38 68 42 114 42 30 1 61 -7 85 -20z m-1048 -1371 c55
-29 85 -90 69 -141 -23 -75 -102 -115 -200 -102 -98 14 -153 104 -114 187 35
73 159 102 245 56z m-1546 -13 c51 -21 97 -81 97 -126 0 -78 -76 -142 -170
-143 -107 -2 -174 56 -173 148 0 28 6 52 12 54 6 2 11 9 11 15 0 13 27 33 70
54 35 16 111 16 153 -2z m3174 -495 l33 -20 0 -323 0 -324 -26 -24 -26 -24
-2348 0 -2348 0 -26 24 -26 24 0 322 c0 294 2 323 18 337 9 9 24 18 32 21 8 3
1066 6 2350 6 2311 1 2335 1 2367 -19z"/>
<path d="M3710 681 c-8 -5 -28 -15 -44 -22 -53 -25 -94 -76 -102 -124 -11 -79
16 -135 90 -183 37 -24 50 -27 136 -27 84 0 100 3 135 25 22 13 48 34 58 45
39 45 61 135 37 150 -5 3 -10 13 -10 21 0 23 -60 77 -112 102 -49 23 -156 30
-188 13z m123 -113 c48 -25 62 -81 28 -112 -46 -42 -144 -23 -157 30 -16 65
65 117 129 82z"/>
<path d="M4430 681 c-8 -5 -28 -15 -43 -22 -71 -33 -114 -107 -104 -179 6 -50
31 -85 85 -122 37 -26 58 -32 116 -36 39 -2 91 1 114 8 57 15 125 77 142 130
37 111 -84 231 -232 229 -35 0 -70 -4 -78 -8z m137 -119 c13 -9 25 -31 29 -49
5 -26 1 -37 -21 -59 -23 -23 -32 -26 -72 -21 -89 10 -112 92 -38 135 29 17 77
14 102 -6z"/>
<path d="M552 538 c-19 -19 -14 -55 10 -72 20 -14 159 -16 1293 -16 1134 0
1273 2 1293 16 24 17 29 53 10 72 -17 17 -2589 17 -2606 0z"/>
<path d="M3613 4460 c-26 -11 -32 -60 -10 -78 7 -7 56 -18 108 -26 112 -17
167 -37 236 -87 77 -57 125 -133 137 -214 11 -72 28 -95 74 -95 62 1 75 18 70
92 -8 131 -112 269 -261 347 -43 23 -86 41 -96 41 -9 0 -21 4 -26 9 -14 14
-206 23 -232 11z"/>
</g>
</svg>
